<svg xmlns="http://www.w3.org/2000/svg" viewBox="0 0 1000 800" width="1000" height="800">
  <style>
    .endtoend { fill: #f3e5f5; stroke: #7b1fa2; stroke-width: 2; }
    .integration { fill: #e0f2f1; stroke: #00695c; stroke-width: 2; }
    .simulation { fill: #e3f2fd; stroke: #1565c0; stroke-width: 2; }
    .workflow { fill: #fff8e1; stroke: #f57f17; stroke-width: 2; }
    .text { font-family: Arial, sans-serif; font-size: 14px; font-weight: bold; fill: #333; }
    .label { font-family: Arial, sans-serif; font-size: 12px; fill: #666; }
    .arrow { stroke: #666; stroke-width: 2; marker-end: url(#arrowhead); }
  </style>

  <defs>
    <marker id="arrowhead" markerWidth="10" markerHeight="7"
            refX="10" refY="3.5" orient="auto">
      <polygon points="0 0, 10 3.5, 0 7" fill="#666" />
    </marker>
  </defs>

  <!-- Title -->
  <text x="500" y="40" class="text" text-anchor="middle" font-size="20">Capstone: End-to-End Autonomous Humanoid System</text>

  <!-- Voice Command Input -->
  <rect x="50" y="80" width="150" height="80" class="endtoend" rx="10"/>
  <text x="125" y="110" class="text" text-anchor="middle">Voice Command</text>
  <text x="125" y="130" class="label" text-anchor="middle">"Go to the kitchen</text>
  <text x="125" y="145" class="label" text-anchor="middle">and bring me coffee"</text>

  <!-- Language Understanding -->
  <rect x="250" y="80" width="180" height="80" class="integration" rx="10"/>
  <text x="340" y="110" class="text" text-anchor="middle">Language Understanding</text>
  <text x="340" y="130" class="label" text-anchor="middle">• Goal Decomposition</text>
  <text x="340" y="145" class="label" text-anchor="middle">• Task Planning</text>

  <!-- Vision Processing -->
  <rect x="480" y="80" width="180" height="80" class="endtoend" rx="10"/>
  <text x="570" y="110" class="text" text-anchor="middle">Vision Processing</text>
  <text x="570" y="130" class="label" text-anchor="middle">• Scene Understanding</text>
  <text x="570" y="145" class="label" text-anchor="middle">• Object Recognition</text>

  <!-- Action Planning -->
  <rect x="710" y="80" width="180" height="80" class="integration" rx="10"/>
  <text x="800" y="110" class="text" text-anchor="middle">Action Planning</text>
  <text x="800" y="130" class="label" text-anchor="middle">• Path Planning</text>
  <text x="800" y="145" class="label" text-anchor="middle">• Manipulation Planning</text>

  <!-- Navigation -->
  <rect x="100" y="200" width="150" height="80" class="simulation" rx="10"/>
  <text x="175" y="230" class="text" text-anchor="middle">Navigation</text>
  <text x="175" y="250" class="label" text-anchor="middle">• Path Planning</text>
  <text x="175" y="265" class="label" text-anchor="middle">• Obstacle Avoidance</text>

  <!-- Perception -->
  <rect x="300" y="200" width="150" height="80" class="endtoend" rx="10"/>
  <text x="375" y="230" class="text" text-anchor="middle">Perception</text>
  <text x="375" y="250" class="label" text-anchor="middle">• Object Detection</text>
  <text x="375" y="265" class="label" text-anchor="middle">• Spatial Awareness</text>

  <!-- Manipulation -->
  <rect x="500" y="200" width="150" height="80" class="integration" rx="10"/>
  <text x="575" y="230" class="text" text-anchor="middle">Manipulation</text>
  <text x="575" y="250" class="label" text-anchor="middle">• Grasp Planning</text>
  <text x="575" y="265" class="label" text-anchor="middle">• Motion Control</text>

  <!-- Safety & Validation -->
  <rect x="700" y="200" width="150" height="80" class="simulation" rx="10"/>
  <text x="775" y="230" class="text" text-anchor="middle">Safety & Validation</text>
  <text x="775" y="250" class="label" text-anchor="middle">• Constraint Checking</text>
  <text x="775" y="265" class="label" text-anchor="middle">• Risk Assessment</text>

  <!-- Simulation Environment -->
  <rect x="50" y="320" width="200" height="100" class="simulation" rx="10"/>
  <text x="150" y="350" class="text" text-anchor="middle">Simulation Environment</text>
  <text x="150" y="370" class="label" text-anchor="middle">• Gazebo Physics</text>
  <text x="150" y="385" class="label" text-anchor="middle">• Sensor Simulation</text>
  <text x="150" y="400" class="label" text-anchor="middle">• Ground Truth</text>

  <!-- ROS 2 Integration -->
  <rect x="300" y="320" width="200" height="100" class="integration" rx="10"/>
  <text x="400" y="350" class="text" text-anchor="middle">ROS 2 Integration</text>
  <text x="400" y="370" class="label" text-anchor="middle">• Node Communication</text>
  <text x="400" y="385" class="label" text-anchor="middle">• Message Passing</text>
  <text x="400" y="400" class="label" text-anchor="middle">• Action Servers</text>

  <!-- Human Interface -->
  <rect x="550" y="320" width="200" height="100" class="endtoend" rx="10"/>
  <text x="650" y="350" class="text" text-anchor="middle">Human Interface</text>
  <text x="650" y="370" class="label" text-anchor="middle">• Voice Feedback</text>
  <text x="650" y="385" class="label" text-anchor="middle">• Status Reporting</text>
  <text x="650" y="400" class="label" text-anchor="middle">• Safety Overrides</text>

  <!-- Unity Visualization -->
  <rect x="800" y="320" width="150" height="100" class="workflow" rx="10"/>
  <text x="875" y="350" class="text" text-anchor="middle">Unity Visualization</text>
  <text x="875" y="370" class="label" text-anchor="middle">• 3D Visualization</text>
  <text x="875" y="385" class="label" text-anchor="middle">• Human-Robot</text>
  <text x="875" y="400" class="label" text-anchor="middle">• Interaction Interface</text>

  <!-- Feedback Loop -->
  <rect x="300" y="460" width="200" height="80" class="simulation" rx="10"/>
  <text x="400" y="490" class="text" text-anchor="middle">Perception-Action Loop</text>
  <text x="400" y="510" class="label" text-anchor="middle">• Continuous Monitoring</text>
  <text x="400" y="525" class="label" text-anchor="middle">• Adaptation</text>

  <!-- Workflow Overview -->
  <rect x="100" y="580" width="800" height="120" class="workflow" rx="10"/>
  <text x="500" y="610" class="text" text-anchor="middle">Complete Workflow</text>
  <text x="500" y="630" class="label" text-anchor="middle">1. Command → 2. Understand → 3. Perceive → 4. Plan → 5. Execute → 6. Monitor → 7. Adapt</text>
  <text x="500" y="650" class="label" text-anchor="middle">• Simulation-First Development</text>
  <text x="500" y="670" class="label" text-anchor="middle">• Safe Testing Environment</text>

  <!-- Arrows showing complete flow -->
  <line x1="200" y1="120" x2="250" y2="120" class="arrow"/>
  <line x1="430" y1="120" x2="480" y2="120" class="arrow"/>
  <line x1="660" y1="120" x2="710" y2="120" class="arrow"/>

  <line x1="175" y1="160" x2="175" y2="200" class="arrow"/>
  <line x1="375" y1="160" x2="375" y2="200" class="arrow"/>
  <line x1="575" y1="160" x2="575" y2="200" class="arrow"/>
  <line x1="775" y1="160" x2="775" y2="200" class="arrow"/>

  <line x1="250" y1="240" x2="300" y2="240" class="arrow"/>
  <line x1="450" y1="240" x2="500" y2="240" class="arrow"/>
  <line x1="650" y1="240" x2="700" y2="240" class="arrow"/>

  <line x1="150" y1="280" x2="150" y2="320" class="arrow"/>
  <line x1="375" y1="280" x2="400" y2="320" class="arrow"/>
  <line x1="575" y1="280" x2="650" y2="320" class="arrow"/>
  <line x1="775" y1="280" x2="875" y2="320" class="arrow"/>

  <line x1="400" y1="420" x2="400" y2="460" class="arrow"/>
  <line x1="400" y1="540" x2="400" y2="580" class="arrow"/>

  <!-- Integration Points -->
  <circle cx="125" cy="500" r="20" fill="#ffcdd2" stroke="#d32f2f" stroke-width="2"/>
  <text x="125" y="505" class="text" font-size="12" text-anchor="middle">VLA</text>

  <circle cx="300" cy="500" r="20" fill="#c8e6c9" stroke="#388e3c" stroke-width="2"/>
  <text x="300" y="505" class="text" font-size="10" text-anchor="middle">ROS2</text>

  <circle cx="475" cy="500" r="20" fill="#bbdefb" stroke="#1976d2" stroke-width="2"/>
  <text x="475" y="505" class="text" font-size="10" text-anchor="middle">Sim</text>

  <circle cx="650" cy="500" r="20" fill="#f8bbd0" stroke="#c2185b" stroke-width="2"/>
  <text x="650" y="505" class="text" font-size="10" text-anchor="middle">AI</text>

  <circle cx="825" cy="500" r="20" fill="#fff3e0" stroke="#f57c00" stroke-width="2"/>
  <text x="825" y="505" class="text" font-size="10" text-anchor="middle">HR</text>

  <!-- Integration Labels -->
  <text x="125" y="530" class="label" text-anchor="middle">Vision-Language-</text>
  <text x="125" y="545" class="label" text-anchor="middle">Action Core</text>

  <text x="300" y="530" class="label" text-anchor="middle">ROS 2</text>
  <text x="300" y="545" class="label" text-anchor="middle">Communication</text>

  <text x="475" y="530" class="label" text-anchor="middle">Simulation</text>
  <text x="475" y="545" class="label" text-anchor="middle">Environment</text>

  <text x="650" y="530" class="label" text-anchor="middle">AI & Cognitive</text>
  <text x="650" y="545" class="label" text-anchor="middle">Processing</text>

  <text x="825" y="530" class="label" text-anchor="middle">Human-Robot</text>
  <text x="825" y="545" class="label" text-anchor="middle">Interface</text>

  <!-- Legend -->
  <rect x="50" y="730" width="900" height="50" fill="white" stroke="#ccc" rx="5"/>
  <text x="100" y="750" class="label" font-weight="bold">Complete VLA System: Voice command → Language understanding → Vision processing → Action planning → Safe execution → Continuous monitoring</text>
  <text x="100" y="765" class="label">Simulation-first approach enables safe development and testing before hardware deployment</text>
</svg>