<svg xmlns="http://www.w3.org/2000/svg" viewBox="0 0 800 600" width="800" height="600">
  <style>
    .simulation { fill: #e3f2fd; stroke: #1976d2; stroke-width: 2; }
    .ros-node { fill: #c8e6c9; stroke: #388e3c; stroke-width: 2; }
    .bridge { fill: #fff3e0; stroke: #f57c00; stroke-width: 2; }
    .message { fill: #fce4ec; stroke: #c2185b; stroke-width: 2; }
    .dds { fill: #f3e5f5; stroke: #7b1fa2; stroke-width: 2; }
    .text { font-family: Arial, sans-serif; font-size: 16px; font-weight: bold; fill: #333; }
    .label { font-family: Arial, sans-serif; font-size: 14px; fill: #666; }
    .connection { stroke: #2196f3; stroke-width: 3; }
  </style>

  <!-- Simulation Environment -->
  <rect x="50" y="50" width="300" height="500" rx="20" class="simulation"/>
  <text x="60" y="40" class="text">Gazebo Simulation</text>

  <!-- Simulated Robot -->
  <circle cx="200" cy="150" r="30" fill="#ff6b6b" stroke="#d63031" stroke-width="2"/>
  <rect x="170" y="180" width="60" height="80" fill="#ff6b6b" stroke="#d63031" stroke-width="2"/>
  <text x="160" y="280" class="label">Simulated Robot</text>

  <!-- Simulated Sensors -->
  <circle cx="180" cy="130" r="15" fill="#fdcb6e" stroke="#e17055" stroke-width="2"/>
  <text x="150" y="120" class="label">Cam</text>

  <circle cx="220" cy="130" r="15" fill="#fdcb6e" stroke="#e17055" stroke-width="2"/>
  <text x="210" y="120" class="label">IMU</text>

  <!-- ROS 2 Environment -->
  <rect x="450" y="50" width="300" height="500" rx="20" class="simulation"/>
  <text x="460" y="40" class="text">ROS 2 Environment</text>

  <!-- ROS Nodes -->
  <rect x="480" y="100" width="240" height="60" class="ros-node" rx="5"/>
  <text x="490" y="130" class="text">Navigation Node</text>

  <rect x="480" y="200" width="240" height="60" class="ros-node" rx="5"/>
  <text x="490" y="230" class="text">Perception Node</text>

  <rect x="480" y="300" width="240" height="60" class="ros-node" rx="5"/>
  <text x="490" y="330" class="text">Control Node</text>

  <!-- Bridge Component -->
  <rect x="370" y="250" width="60" height="80" class="bridge" rx="5"/>
  <text x="375" y="275" class="text">Bridge</text>
  <text x="375" y="295" class="label">gazebo_ros_pkgs</text>

  <!-- DDS Middleware -->
  <ellipse cx="600" cy="450" rx="80" ry="40" class="dds"/>
  <text x="560" y="455" class="text">DDS Middleware</text>

  <!-- Messages -->
  <rect x="250" y="350" width="100" height="30" class="message" rx="3"/>
  <text x="260" y="370" class="label">sensor_msgs</text>

  <rect x="250" y="400" width="100" height="30" class="message" rx="3"/>
  <text x="260" y="420" class="label">geometry_msgs</text>

  <!-- Connections -->
  <line x1="330" y1="150" x2="450" y2="130" class="connection"/>
  <line x1="330" y1="180" x2="450" y2="230" class="connection"/>
  <line x1="330" y1="210" x2="450" y2="330" class="connection"/>

  <line x1="600" y1="130" x2="600" y2="410" stroke="#9e9e9e" stroke-width="2" stroke-dasharray="5,5"/>
  <line x1="600" y1="490" x2="600" y2="550" stroke="#9e9e9e" stroke-width="2" stroke-dasharray="5,5"/>

  <!-- Data Flow Labels -->
  <text x="340" y="120" class="label">Camera Data</text>
  <text x="340" y="160" class="label">IMU Data</text>
  <text x="340" y="190" class="label">Lidar Data</text>

  <!-- Integration Benefits -->
  <rect x="50" y="400" width="280" height="140" fill="white" stroke="#ccc" stroke-width="2" rx="5"/>
  <text x="60" y="420" class="text">Integration Benefits:</text>
  <text x="70" y="440" class="label">• Same interfaces as real hardware</text>
  <text x="70" y="460" class="label">• Seamless simulation-to-hardware</text>
  <text x="70" y="480" class="label">• Standard ROS 2 message types</text>
  <text x="70" y="500" class="label">• Reusable control algorithms</text>

  <!-- Legend -->
  <rect x="100" y="550" width="600" height="30" fill="white" stroke="#ccc" rx="5"/>
  <text x="110" y="570" class="text">ROS 2 Integration: Connecting simulation to robotics framework via standardized interfaces</text>
</svg>